<svg id="Agrupar_369" data-name="Agrupar 369" xmlns="http://www.w3.org/2000/svg" width="139.803" height="40.354" viewBox="0 0 139.803 40.354">
  <g id="Agrupar_19" data-name="Agrupar 19" transform="translate(0 0)">
    <path id="Caminho_458" data-name="Caminho 458" d="M400.689,49.368H392.58l-2.631,5.138H385.4l8.357-16.063c1.517-2.909,3.281-3.343,5.323-3.343,2.012,0,3.776.774,4.209,3.343l2.631,16.063h-4.426Zm-1.7-10.585c-.062-.34-.217-.526-.464-.526-.279,0-.341.186-.526.557l-3.807,7.4h6Z" transform="translate(-266.117 -24.241)" fill="#FFFFFF"/>
    <path id="Caminho_459" data-name="Caminho 459" d="M289.213,39.019h-6.345l-2.816,15.97h-4.271l2.816-15.97h-6.1l.557-3.219H289.77Z" transform="translate(-188.16 -24.725)" fill="#FFFFFF"/>
    <path id="Caminho_460" data-name="Caminho 460" d="M226.735,55.058h-6.376a7.641,7.641,0,0,1-4.581-1.145,3.6,3.6,0,0,1-1.578-3.1c0-.31.031-.619.062-.929l1.548-8.759a5.551,5.551,0,0,1,2.507-3.807,9.57,9.57,0,0,1,5.416-1.424h6.531l-.557,3.219h-6.5a3.356,3.356,0,0,0-2.321.65,2.826,2.826,0,0,0-.774,1.7l-.371,2.136h8.6l-.526,3.188h-8.573l-.5,2.847a4.277,4.277,0,0,0-.093.8c0,1.021.774,1.517,2.321,1.517h6.778l-.4,2.259-.093.526a.506.506,0,0,1-.526.31" transform="translate(-147.904 -24.794)" fill="#FFFFFF"/>
    <path id="Caminho_461" data-name="Caminho 461" d="M158.852,54.023H150l3.219-18.446a33.4,33.4,0,0,1,8.418-1.176c3.064,0,6.407,1.362,6.407,4.983,0,2.259-1.671,3.559-3.745,4.271l-.031.093c2.136.836,3.188,2.074,3.188,3.714a5.7,5.7,0,0,1-2.414,4.766,10.024,10.024,0,0,1-6.19,1.8m4.8-14.237c0-3.4-4.488-2.29-6.531-2.043l-.774,4.735H160.4a3.47,3.47,0,0,0,2.321-.8,2.387,2.387,0,0,0,.929-1.888m-.557,7.861c0-1.393-.836-2.1-2.538-2.1h-4.766l-.959,5.293h4.55a3.88,3.88,0,0,0,2.755-.9,2.861,2.861,0,0,0,.959-2.29" transform="translate(-103.574 -23.758)" fill="#FFFFFF"/>
    <path id="Caminho_462" data-name="Caminho 462" d="M332.245,43.507h7.366l1.362-7.707h4.333l-3.312,18.756a.528.528,0,0,1-.588.433H337.6l1.455-8.295h-7.335l-1.455,8.295H325.9L329.274,35.8h4.364Z" transform="translate(-225.033 -24.725)" fill="#FFFFFF"/>
    <path id="Caminho_463" data-name="Caminho 463" d="M61.409,15.827h0v1.114a1.325,1.325,0,0,1-.712,1.238l-7.242,4.24-.155.093h0a1.443,1.443,0,0,1-1.455-.062l-.743-.464-2.878-1.7L44.7,18.272H44.6a1.3,1.3,0,0,1-.774-1.238V8.43A1.43,1.43,0,0,1,44.6,7.1l7.211-4.147.093-.062a1.425,1.425,0,0,1,1.486,0l.681.4H54.1l6.407,3.745.186.124a1.405,1.405,0,0,1,.712,1.331ZM63.978,7.5h0A4.111,4.111,0,0,0,62,4.808L54.476.413l-.5-.186a4.133,4.133,0,0,0-3.528.433L43.458,4.685A3.975,3.975,0,0,0,41.2,8.4v8.666a3.969,3.969,0,0,0,2.259,3.59l3.435,1.95,3.869,2.259.588.248a4.365,4.365,0,0,0,1.269.217,3.9,3.9,0,0,0,2.2-.65L58.345,22.6l3.962-2.259.433-.248a4.641,4.641,0,0,0,1.331-2.29V8.058Z" transform="translate(-28.447 -0.016)" fill="#FFFFFF"/>
    <path id="Caminho_464" data-name="Caminho 464" d="M1.919,44.15,4.3,42.757,6.685,44.15v2.786L4.3,48.328,1.919,46.966l-.031-.155V44.15Zm6.623-.31a1.842,1.842,0,0,0-.9-1.3L5.169,41.086c-.062-.031-.093-.062-.155-.062a1.764,1.764,0,0,0-.681-.124,1.838,1.838,0,0,0-.959.248l-2.29,1.3A1.845,1.845,0,0,0,0,44.181v2.847a1.746,1.746,0,0,0,1.021,1.609L3.435,50.03c.031.031.093.031.124.062a2.155,2.155,0,0,0,.774.155,1.6,1.6,0,0,0,.959-.279l2.476-1.455c.031-.031.093-.062.124-.093a1.713,1.713,0,0,0,.681-1.114A.6.6,0,0,0,8.6,47.09V44.026c-.031-.062-.031-.124-.062-.186" transform="translate(0 -28.246)" fill="#FFFFFF"/>
    <path id="Caminho_465" data-name="Caminho 465" d="M23,86.452a.63.63,0,0,1-.31.588l-.124.062c-.062.031-.093.062-.155.093l-4.488,2.631a.1.1,0,0,1-.062.031.88.88,0,0,1-.371.124.857.857,0,0,1-.4-.093l-.124-.093a.161.161,0,0,0-.124-.062l-4.519-2.6c-.031,0-.031-.031-.062-.031a.6.6,0,0,1-.371-.557V80.819a.729.729,0,0,1,.34-.65c.031-.031.062-.031.093-.062l4.7-2.693c.031,0,.031-.031.062-.031a.789.789,0,0,1,.743,0l.124.062a.114.114,0,0,0,.093.031l4.55,2.662c.031.031.031.031.062.031a.729.729,0,0,1,.34.65v5.633ZM24.085,88.8A2.859,2.859,0,0,0,25.2,86.947a.769.769,0,0,0,.031-.248V80.571a.527.527,0,0,0-.031-.217,2.963,2.963,0,0,0-1.455-2.136L18.761,75.31l-.186-.093A2.9,2.9,0,0,0,17.43,75a2.94,2.94,0,0,0-1.578.433L11.271,78.1A3.017,3.017,0,0,0,9.6,80.85v5.633a2.836,2.836,0,0,0,1.64,2.569l4.828,2.786a.523.523,0,0,0,.155.062,3.366,3.366,0,0,0,1.207.248,2.682,2.682,0,0,0,1.548-.464L23.9,88.8a.135.135,0,0,0,.186,0" transform="translate(-6.629 -51.792)" fill="#FFFFFF"/>
  </g>
</svg>
