<svg xmlns="http://www.w3.org/2000/svg" xmlns:xlink="http://www.w3.org/1999/xlink" width="1199.333" height="514" viewBox="0 0 1199.333 514">
  <defs>
    <clipPath id="clip-campaign-clouds">
      <rect width="1199.333" height="514"/>
    </clipPath>
  </defs>
  <g id="campaign-clouds" clip-path="url(#clip-campaign-clouds)">
    <path id="Caminho_472" data-name="Caminho 472" d="M-1299.035-615.96h180.757s2.345-.859,1.276-4.49-3.963-19.381-28.707-19.345-21.21,12.438-21.21,12.438,6.164-32.388-28.141-35.687-34.305,24.966-34.305,24.966-3.051-4.226-12.473-4.577c-8.143.1-12.086,5.58-18.967,13.9-16.383,19.8,32.788-9.931-17.544-15.091-16.66-1.708-24.725,10.861-27.461,15.091C-1311.113-620.569-1299.035-615.96-1299.035-615.96Z" transform="translate(1232.156 701.359)" fill="#aed6ff"/>
    <path id="Caminho_473" data-name="Caminho 473" d="M-638.378-575.629h0s-.549,3.22,1.744,3,84.624,0,84.624,0a6.554,6.554,0,0,0,3.343-1.122c1.33-1.049,8.429-4.867,8.783-12.821s-7.527-23.837-31.229-24.19-29.9,19.579-29.412,21.812c-5.56-1.9-22.973-8.33-32.968,3.675a27.039,27.039,0,0,0-4.885,9.647C-638.364-575.678-638.371-575.653-638.378-575.629Z" transform="translate(903.013 707.943)" fill="#aed6ff"/>
    <path id="Caminho_470" data-name="Caminho 470" d="M622.388-435.159c.812.388,130.057,0,130.057,0s9.881-2.435,9.581-7.975-5.329-9.775-12.492-13.41-16.021-4.129-20.768-3.723-14.715,2.911-19.056,5.84c-.618-8.469-4.235-17.415-14.521-20.556s-19.18-3.423-30.56,1.711-12.3,16.815-11.292,20.556c-4.323-.194-5.84-2.629-17.133-1.711s-22.479,8.275-20.767,13.11S621.577-435.548,622.388-435.159Z" transform="translate(195.423 541.453)" fill="#badcff"/>
    <path id="Caminho_469" data-name="Caminho 469" d="M618.4-458.719c.357.171,57.265,0,57.265,0s4.351-1.072,4.219-3.512-2.346-4.3-5.5-5.9a18.478,18.478,0,0,0-9.144-1.639c-2.09.179-6.479,1.282-8.391,2.572-.272-3.729-1.865-7.668-6.394-9.051A17.421,17.421,0,0,0,637-475.5a8.433,8.433,0,0,0-4.972,9.051c-1.9-.085-2.572-1.158-7.544-.754s-9.9,3.644-9.144,5.772A4.5,4.5,0,0,0,618.4-458.719Z" transform="translate(-94.892 496.555)" fill="#aed6ff"/>
    <path id="Caminho_477" data-name="Caminho 477" d="M-1299.035-615.96h180.757s2.345-.859,1.276-4.49-3.963-19.381-28.707-19.345-21.21,12.438-21.21,12.438,6.164-32.388-28.141-35.687-34.305,24.966-34.305,24.966-3.051-4.226-12.473-4.577c-8.143.1-12.086,5.58-18.967,13.9-16.383,19.8,32.788-9.931-17.544-15.091-16.66-1.708-24.725,10.861-27.461,15.091C-1311.113-620.569-1299.035-615.96-1299.035-615.96Z" transform="translate(2431.156 701.359)" fill="#aed6ff"/>
  </g>
</svg>
